<svg width="292" height="56" viewBox="0 0 292 56" fill="none" xmlns="http://www.w3.org/2000/svg">
<ellipse cx="167.266" cy="32.1312" rx="20.327" ry="20.6558" fill="url(#paint0_linear_104_246)"/>
<ellipse cx="101.17" cy="32.6806" rx="3.99013" ry="4.01641" fill="url(#paint1_linear_104_246)"/>
<ellipse cx="195.461" cy="32.096" rx="3.99013" ry="4.01641" fill="url(#paint2_linear_104_246)"/>
<rect x="153.779" y="8.03284" width="7.64303" height="27.3609" rx="3.82151" transform="rotate(-90 153.779 8.03284)" fill="url(#paint3_linear_104_246)"/>
<rect x="257.906" y="8.03284" width="8.03281" height="27.3609" rx="4.01641" transform="rotate(-90 257.906 8.03284)" fill="url(#paint4_linear_104_246)"/>
<rect x="117.271" y="11.4754" width="15.9605" height="41.3116" rx="7.98026" fill="url(#paint5_linear_104_246)"/>
<rect x="104.73" y="27.541" width="16.0656" height="41.0413" rx="8.03281" transform="rotate(-90 104.73 27.541)" fill="url(#paint6_linear_104_246)"/>
<rect x="76.5811" y="11.3333" width="15.9605" height="41.3116" rx="7.98026" fill="url(#paint7_linear_104_246)"/>
<rect x="51.5005" y="11.3333" width="15.9605" height="41.3116" rx="7.98026" fill="url(#paint8_linear_104_246)"/>
<rect width="16.0132" height="51.6012" rx="8.00658" transform="matrix(0.704782 -0.709424 0.704782 0.709424 48.1948 19.3659)" fill="url(#paint9_linear_104_246)"/>
<rect width="13.9675" height="45.157" rx="6.98373" transform="matrix(0.864599 0.502463 -0.497541 0.867441 22.8389 8.98019)" fill="url(#paint10_linear_104_246)"/>
<rect width="13.9675" height="45.157" rx="6.98373" transform="matrix(0.864599 -0.502463 0.497541 0.867441 16.1035 15.9984)" fill="url(#paint11_linear_104_246)"/>
<rect x="229.925" y="11.3603" width="15.9605" height="41.3116" rx="7.98026" fill="url(#paint12_linear_104_246)"/>
<rect x="204.845" y="11.3603" width="15.9605" height="41.3116" rx="7.98026" fill="url(#paint13_linear_104_246)"/>
<rect width="16.0132" height="51.6012" rx="8.00658" transform="matrix(0.704782 -0.709424 0.704782 0.709424 201.539 19.3929)" fill="url(#paint14_linear_104_246)"/>
<rect x="250.408" y="40.2182" width="16.2909" height="26.2995" rx="8.14545" transform="rotate(-90 250.408 40.2182)" fill="url(#paint15_linear_104_246)"/>
<rect x="250.33" y="52.787" width="16.0656" height="41.0413" rx="8.03281" transform="rotate(-90 250.33 52.787)" fill="url(#paint16_linear_104_246)"/>
<rect x="250.33" y="27.541" width="16.0656" height="41.0413" rx="8.03281" transform="rotate(-90 250.33 27.541)" fill="url(#paint17_linear_104_246)"/>
<rect x="250.33" y="11.4754" width="15.9605" height="41.3116" rx="7.98026" fill="url(#paint18_linear_104_246)"/>
<defs>
<linearGradient id="paint0_linear_104_246" x1="167.266" y1="11.4754" x2="167.266" y2="52.787" gradientUnits="userSpaceOnUse">
<stop stop-color="#494949"/>
<stop offset="1" stop-color="#151515"/>
</linearGradient>
<linearGradient id="paint1_linear_104_246" x1="101.17" y1="28.6642" x2="101.17" y2="36.6971" gradientUnits="userSpaceOnUse">
<stop stop-color="#494949"/>
<stop offset="1" stop-color="#151515"/>
</linearGradient>
<linearGradient id="paint2_linear_104_246" x1="195.461" y1="28.0796" x2="195.461" y2="36.1124" gradientUnits="userSpaceOnUse">
<stop stop-color="#494949"/>
<stop offset="1" stop-color="#151515"/>
</linearGradient>
<linearGradient id="paint3_linear_104_246" x1="157.601" y1="8.03284" x2="157.601" y2="35.3937" gradientUnits="userSpaceOnUse">
<stop stop-color="#494949"/>
<stop offset="1" stop-color="#151515"/>
</linearGradient>
<linearGradient id="paint4_linear_104_246" x1="261.923" y1="8.03284" x2="261.923" y2="35.3937" gradientUnits="userSpaceOnUse">
<stop stop-color="#494949"/>
<stop offset="1" stop-color="#151515"/>
</linearGradient>
<linearGradient id="paint5_linear_104_246" x1="125.251" y1="11.4754" x2="125.251" y2="52.787" gradientUnits="userSpaceOnUse">
<stop stop-color="#494949"/>
<stop offset="1" stop-color="#151515"/>
</linearGradient>
<linearGradient id="paint6_linear_104_246" x1="112.763" y1="27.541" x2="112.763" y2="68.5823" gradientUnits="userSpaceOnUse">
<stop stop-color="#494949"/>
<stop offset="1" stop-color="#151515"/>
</linearGradient>
<linearGradient id="paint7_linear_104_246" x1="84.5613" y1="11.3333" x2="84.5613" y2="52.6448" gradientUnits="userSpaceOnUse">
<stop stop-color="#494949"/>
<stop offset="1" stop-color="#151515"/>
</linearGradient>
<linearGradient id="paint8_linear_104_246" x1="59.4807" y1="11.3333" x2="59.4807" y2="52.6448" gradientUnits="userSpaceOnUse">
<stop stop-color="#494949"/>
<stop offset="1" stop-color="#151515"/>
</linearGradient>
<linearGradient id="paint9_linear_104_246" x1="8.00658" y1="0" x2="8.00658" y2="51.6012" gradientUnits="userSpaceOnUse">
<stop stop-color="#494949"/>
<stop offset="1" stop-color="#151515"/>
</linearGradient>
<linearGradient id="paint10_linear_104_246" x1="6.98373" y1="0" x2="6.98373" y2="45.157" gradientUnits="userSpaceOnUse">
<stop stop-color="#494949"/>
<stop offset="1" stop-color="#151515"/>
</linearGradient>
<linearGradient id="paint11_linear_104_246" x1="6.98373" y1="0" x2="6.98373" y2="45.157" gradientUnits="userSpaceOnUse">
<stop stop-color="#494949"/>
<stop offset="1" stop-color="#151515"/>
</linearGradient>
<linearGradient id="paint12_linear_104_246" x1="237.905" y1="11.3603" x2="237.905" y2="52.6719" gradientUnits="userSpaceOnUse">
<stop stop-color="#494949"/>
<stop offset="1" stop-color="#151515"/>
</linearGradient>
<linearGradient id="paint13_linear_104_246" x1="212.825" y1="11.3603" x2="212.825" y2="52.6719" gradientUnits="userSpaceOnUse">
<stop stop-color="#494949"/>
<stop offset="1" stop-color="#151515"/>
</linearGradient>
<linearGradient id="paint14_linear_104_246" x1="8.00658" y1="0" x2="8.00658" y2="51.6012" gradientUnits="userSpaceOnUse">
<stop stop-color="#494949"/>
<stop offset="1" stop-color="#151515"/>
</linearGradient>
<linearGradient id="paint15_linear_104_246" x1="258.554" y1="40.2182" x2="258.554" y2="66.5178" gradientUnits="userSpaceOnUse">
<stop stop-color="#494949"/>
<stop offset="1" stop-color="#151515"/>
</linearGradient>
<linearGradient id="paint16_linear_104_246" x1="258.363" y1="52.787" x2="258.363" y2="93.8284" gradientUnits="userSpaceOnUse">
<stop stop-color="#494949"/>
<stop offset="1" stop-color="#151515"/>
</linearGradient>
<linearGradient id="paint17_linear_104_246" x1="258.363" y1="27.541" x2="258.363" y2="68.5824" gradientUnits="userSpaceOnUse">
<stop stop-color="#494949"/>
<stop offset="1" stop-color="#151515"/>
</linearGradient>
<linearGradient id="paint18_linear_104_246" x1="258.31" y1="11.4754" x2="258.31" y2="52.787" gradientUnits="userSpaceOnUse">
<stop stop-color="#494949"/>
<stop offset="1" stop-color="#151515"/>
</linearGradient>
</defs>
</svg>
